<svg width="43" height="43" viewBox="0 0 43 43" fill="none" xmlns="http://www.w3.org/2000/svg">
<path d="M29.9548 35.389L28.8082 26.2085C28.6457 24.9081 28.0137 23.712 27.0311 22.8449C26.0485 21.9778 24.783 21.4995 23.4726 21.5H19.5237C18.2139 21.5004 16.9493 21.979 15.9674 22.846C14.9856 23.7131 14.3542 24.9088 14.1917 26.2085L13.0433 35.389C12.9803 35.8934 13.0252 36.4054 13.1753 36.891C13.3253 37.3767 13.577 37.8249 13.9135 38.2058C14.25 38.5867 14.6638 38.8917 15.1272 39.1005C15.5907 39.3093 16.0932 39.417 16.6015 39.4167H26.3984C26.9065 39.4168 27.4089 39.3088 27.8721 39.0999C28.3353 38.8911 28.7488 38.586 29.0852 38.2051C29.4215 37.8242 29.673 37.3761 29.8229 36.8906C29.9729 36.4051 30.0178 35.8932 29.9548 35.389V35.389Z" stroke="white" stroke-width="3.58333" stroke-linecap="round" stroke-linejoin="round"/>
<path d="M21.5 14.3334C24.4685 14.3334 26.875 11.9269 26.875 8.95837C26.875 5.98984 24.4685 3.58337 21.5 3.58337C18.5315 3.58337 16.125 5.98984 16.125 8.95837C16.125 11.9269 18.5315 14.3334 21.5 14.3334Z" stroke="white" stroke-width="3.58333"/>
<path d="M7.16683 19.7084C9.14585 19.7084 10.7502 18.1041 10.7502 16.1251C10.7502 14.1461 9.14585 12.5417 7.16683 12.5417C5.18781 12.5417 3.5835 14.1461 3.5835 16.1251C3.5835 18.1041 5.18781 19.7084 7.16683 19.7084Z" stroke="white" stroke-width="3.58333"/>
<path d="M35.8333 19.7084C37.8124 19.7084 39.4167 18.1041 39.4167 16.1251C39.4167 14.1461 37.8124 12.5417 35.8333 12.5417C33.8543 12.5417 32.25 14.1461 32.25 16.1251C32.25 18.1041 33.8543 19.7084 35.8333 19.7084Z" stroke="white" stroke-width="3.58333"/>
<path d="M35.8333 25.0834H36.3816C37.2298 25.0833 38.0506 25.3841 38.6979 25.9323C39.3451 26.4805 39.777 27.2406 39.9165 28.0772L40.5131 31.6606C40.5988 32.174 40.5715 32.6999 40.4333 33.2017C40.2951 33.7034 40.0492 34.1691 39.7127 34.5662C39.3763 34.9634 38.9574 35.2825 38.4852 35.5013C38.0129 35.7201 37.4987 35.8334 36.9782 35.8334H30.4583M7.16664 25.0834H6.61839C5.77014 25.0833 4.94937 25.3841 4.30208 25.9323C3.65479 26.4805 3.22296 27.2406 3.08343 28.0772L2.4868 31.6606C2.40118 32.174 2.42843 32.6999 2.56666 33.2017C2.70488 33.7034 2.95076 34.1691 3.28719 34.5662C3.62362 34.9634 4.04253 35.2825 4.51478 35.5013C4.98703 35.7201 5.50128 35.8334 6.02176 35.8334H12.5416L7.16664 25.0834Z" stroke="white" stroke-width="3.58333" stroke-linecap="round" stroke-linejoin="round"/>
</svg>
