<svg width="43" height="43" viewBox="0 0 43 43" fill="none" xmlns="http://www.w3.org/2000/svg">
<g clip-path="url(#clip0_416_23)">
<path d="M5.86925e-09 9.40625C5.86925e-09 8.3371 0.42472 7.31173 1.18073 6.55573C1.93673 5.79972 2.9621 5.375 4.03125 5.375H28.2188C29.2879 5.375 30.3133 5.79972 31.0693 6.55573C31.8253 7.31173 32.25 8.3371 32.25 9.40625V13.4375H34.9913C35.5952 13.438 36.1914 13.5743 36.7356 13.8362C37.2799 14.0981 37.7583 14.4789 38.1356 14.9506L42.1158 19.9224C42.6885 20.6378 43.0004 21.5269 43 22.4433V28.2188C43 29.2879 42.5753 30.3133 41.8193 31.0693C41.0633 31.8253 40.0379 32.25 38.9688 32.25H37.625C37.625 33.6755 37.0587 35.0427 36.0507 36.0507C35.0427 37.0587 33.6755 37.625 32.25 37.625C30.8245 37.625 29.4573 37.0587 28.4493 36.0507C27.4413 35.0427 26.875 33.6755 26.875 32.25H13.4375C13.439 32.9664 13.2973 33.676 13.0207 34.3369C12.7441 34.9978 12.3382 35.5967 11.8267 36.0984C11.3153 36.6002 10.7088 36.9946 10.0427 37.2585C9.37665 37.5225 8.66455 37.6506 7.94826 37.6354C7.23198 37.6202 6.52597 37.4619 5.87173 37.1699C5.2175 36.8779 4.62824 36.458 4.13861 35.935C3.64898 35.4119 3.26885 34.7963 3.02057 34.1243C2.7723 33.4522 2.66088 32.7373 2.69287 32.0216C1.90557 31.7445 1.22368 31.2298 0.741332 30.5486C0.258983 29.8675 -4.50209e-05 29.0534 5.86925e-09 28.2188L5.86925e-09 9.40625ZM3.47763 29.4443C3.96353 28.6487 4.64806 27.9933 5.46395 27.5425C6.27984 27.0916 7.19901 26.8608 8.13111 26.8727C9.0632 26.8847 9.97616 27.1389 10.7802 27.6105C11.5843 28.0821 12.2519 28.7548 12.7172 29.5625H27.5952C28.068 28.7462 28.7462 28.068 29.5625 27.5952V9.40625C29.5625 9.04987 29.4209 8.70808 29.1689 8.45608C28.9169 8.20407 28.5751 8.0625 28.2188 8.0625H4.03125C3.67487 8.0625 3.33308 8.20407 3.08108 8.45608C2.82907 8.70808 2.6875 9.04987 2.6875 9.40625V28.2188C2.68729 28.4774 2.76173 28.7306 2.90188 28.948C3.04204 29.1654 3.24195 29.3377 3.47763 29.4443ZM32.25 26.875C33.1935 26.875 34.1203 27.1234 34.9374 27.5951C35.7545 28.0669 36.433 28.7454 36.9048 29.5625H38.9688C39.3251 29.5625 39.6669 29.4209 39.9189 29.1689C40.1709 28.9169 40.3125 28.5751 40.3125 28.2188V22.4406C40.312 22.1357 40.2077 21.84 40.0169 21.6021L36.0394 16.6303C35.9137 16.4729 35.7543 16.3458 35.5728 16.2583C35.3914 16.1708 35.1927 16.1253 34.9913 16.125H32.25V26.875ZM8.0625 29.5625C7.34973 29.5625 6.66615 29.8456 6.16215 30.3497C5.65815 30.8537 5.375 31.5372 5.375 32.25C5.375 32.9628 5.65815 33.6463 6.16215 34.1503C6.66615 34.6544 7.34973 34.9375 8.0625 34.9375C8.77527 34.9375 9.45885 34.6544 9.96285 34.1503C10.4669 33.6463 10.75 32.9628 10.75 32.25C10.75 31.5372 10.4669 30.8537 9.96285 30.3497C9.45885 29.8456 8.77527 29.5625 8.0625 29.5625ZM32.25 29.5625C31.5372 29.5625 30.8537 29.8456 30.3497 30.3497C29.8456 30.8537 29.5625 31.5372 29.5625 32.25C29.5625 32.9628 29.8456 33.6463 30.3497 34.1503C30.8537 34.6544 31.5372 34.9375 32.25 34.9375C32.9628 34.9375 33.6463 34.6544 34.1503 34.1503C34.6544 33.6463 34.9375 32.9628 34.9375 32.25C34.9375 31.5372 34.6544 30.8537 34.1503 30.3497C33.6463 29.8456 32.9628 29.5625 32.25 29.5625Z" fill="white"/>
</g>
<defs>
<clipPath id="clip0_416_23">
<rect width="43" height="43" fill="white"/>
</clipPath>
</defs>
</svg>
